<svg xmlns="http://www.w3.org/2000/svg" viewBox="0 0 720 405" preserveAspectRatio="xMidYMid meet" role="img" aria-label="CBA chartered-bank national mortgage arrears rate, monthly, last 36 months ending February 2026. Latest print highlighted in red." style="display:block;width:100%;height:auto;background:#FFFFFF;font-family:Manrope, system-ui, sans-serif"><line x1="56" x2="624" y1="312.25" y2="312.25" stroke="#000000" stroke-opacity="0.18" stroke-width="1"/><line x1="56" x2="624" y1="231.00" y2="231.00" stroke="#000000" stroke-opacity="0.18" stroke-width="1"/><line x1="56" x2="624" y1="149.75" y2="149.75" stroke="#000000" stroke-opacity="0.18" stroke-width="1"/><line x1="56" x2="624" y1="68.50" y2="68.50" stroke="#000000" stroke-opacity="0.18" stroke-width="1"/><path d="M56.00 312.25 L72.23 312.25 L88.46 312.25 L104.69 312.25 L120.91 312.25 L137.14 312.25 L153.37 296.00 L169.60 279.75 L185.83 279.75 L202.06 263.50 L218.29 263.50 L234.51 247.25 L250.74 247.25 L266.97 263.50 L283.20 247.25 L299.43 247.25 L315.66 231.00 L331.89 231.00 L348.11 231.00 L364.34 214.75 L380.57 214.75 L396.80 198.50 L413.03 198.50 L429.26 182.25 L445.49 198.50 L461.71 198.50 L477.94 198.50 L494.17 182.25 L510.40 182.25 L526.63 166.00 L542.86 166.00 L559.09 149.75 L575.31 149.75 L591.54 133.50 L607.77 117.25 L624.00 101.00" stroke="#000000" stroke-width="1.5" fill="none" vector-effect="non-scaling-stroke"/><circle cx="624.00" cy="101.00" r="4" fill="#E63946"><title>Latest: Feb 2026 0.28%</title></circle><rect x="56" y="36" width="568" height="325" fill="none" stroke="#000000" stroke-width="1"/><text x="48.00" y="316.25" text-anchor="end" fill="#000000" font-family="'IBM Plex Mono', Menlo, monospace" font-size="12" font-weight="400" font-variant-numeric="tabular-nums">0.15</text><text x="48.00" y="235.00" text-anchor="end" fill="#000000" font-family="'IBM Plex Mono', Menlo, monospace" font-size="12" font-weight="400" font-variant-numeric="tabular-nums">0.20</text><text x="48.00" y="153.75" text-anchor="end" fill="#000000" font-family="'IBM Plex Mono', Menlo, monospace" font-size="12" font-weight="400" font-variant-numeric="tabular-nums">0.25</text><text x="48.00" y="72.50" text-anchor="end" fill="#000000" font-family="'IBM Plex Mono', Menlo, monospace" font-size="12" font-weight="400" font-variant-numeric="tabular-nums">0.30%</text><text x="56.00" y="379.00" text-anchor="start" fill="#000000" font-family="Manrope, system-ui, sans-serif" font-size="12" font-weight="400">Mar 2023</text><text x="250.74" y="379.00" text-anchor="middle" fill="#000000" font-family="Manrope, system-ui, sans-serif" font-size="12" font-weight="400">Mar 2024</text><text x="445.49" y="379.00" text-anchor="middle" fill="#000000" font-family="Manrope, system-ui, sans-serif" font-size="12" font-weight="400">Mar 2025</text><text x="624.00" y="379.00" text-anchor="end" fill="#000000" font-family="Manrope, system-ui, sans-serif" font-size="12" font-weight="400">Feb 2026</text><text x="634.00" y="105.00" fill="#000000" font-family="Manrope, system-ui, sans-serif" font-size="13" font-weight="600">Arrears rate</text></svg>