<svg xmlns="http://www.w3.org/2000/svg" viewBox="0 0 720 405" preserveAspectRatio="xMidYMid meet" role="img" aria-label="USDCAD spot rate (top panel) and 2-year GoC minus 2-year UST spread (bottom panel), daily, January 2024 through May 2026. The two series are moving in opposite directions through Q1 and Q2 of 2026. Latest readings highlighted in red." style="display:block;width:100%;height:auto;background:#FFFFFF;font-family:Manrope, system-ui, sans-serif"><line x1="56" x2="624" y1="166.00" y2="166.00" stroke="#000000" stroke-opacity="0.18" stroke-width="1"/><line x1="56" x2="624" y1="114.00" y2="114.00" stroke="#000000" stroke-opacity="0.18" stroke-width="1"/><line x1="56" x2="624" y1="62.00" y2="62.00" stroke="#000000" stroke-opacity="0.18" stroke-width="1"/><line x1="56" x2="624" y1="336.78" y2="336.78" stroke="#000000" stroke-opacity="0.18" stroke-width="1"/><line x1="56" x2="624" y1="288.34" y2="288.34" stroke="#000000" stroke-opacity="0.18" stroke-width="1"/><line x1="56" x2="624" y1="239.91" y2="239.91" stroke="#000000" stroke-opacity="0.18" stroke-width="1"/><path d="M56.00 185.76 L56.66 180.77 L57.33 181.08 L57.99 183.58 L59.98 180.46 L60.64 178.06 L61.31 178.58 L61.97 172.34 L62.64 176.50 L65.29 168.91 L65.95 163.61 L66.62 165.69 L67.28 169.43 L69.27 170.78 L69.93 167.46 L70.60 168.18 L71.26 167.14 L71.93 170.58 L73.92 172.34 L74.58 175.46 L75.24 178.06 L75.91 178.48 L76.57 170.37 L78.56 162.57 L79.22 166.10 L79.89 169.12 L80.55 169.85 L81.21 168.29 L83.21 172.55 L83.87 159.45 L84.53 160.80 L85.20 166.73 L85.86 167.77 L88.51 164.23 L89.18 165.58 L89.84 166.42 L90.50 165.79 L92.50 164.65 L93.16 163.71 L93.82 158.72 L94.49 158.93 L95.15 160.49 L97.14 159.45 L97.80 157.78 L98.47 165.06 L99.13 169.54 L99.79 169.33 L101.79 167.56 L102.45 166.52 L103.11 169.12 L103.78 164.34 L104.44 162.88 L106.43 161.84 L107.09 157.89 L107.76 159.55 L108.42 162.26 L109.08 156.22 L111.07 157.78 L111.74 158.93 L112.40 157.06 L113.07 162.88 L113.73 161.84 L115.72 157.78 L116.38 158.72 L117.05 163.82 L117.71 166.73 L118.37 157.68 L120.36 157.37 L121.03 157.37 L121.69 146.45 L122.36 144.68 L123.02 139.38 L125.01 139.90 L125.67 132.30 L126.34 134.38 L127.00 139.48 L127.66 140.83 L129.65 143.02 L130.32 147.70 L130.98 143.02 L131.64 146.14 L132.31 147.49 L134.30 150.50 L134.96 140.21 L135.63 138.96 L136.29 145.62 L136.95 146.97 L138.94 149.88 L139.61 143.95 L140.27 143.22 L140.93 146.24 L141.60 149.05 L143.59 147.80 L144.25 150.40 L144.92 154.35 L145.58 154.98 L146.24 154.04 L148.23 154.46 L148.90 151.02 L149.56 148.63 L150.22 145.62 L150.89 148.84 L153.54 152.48 L154.21 144.99 L154.87 148.53 L155.53 150.82 L157.52 152.90 L158.19 146.86 L158.85 144.68 L159.51 146.86 L160.18 140.31 L162.17 139.48 L162.83 138.54 L163.50 146.24 L164.16 140.42 L164.82 141.56 L166.81 139.79 L167.48 142.81 L168.80 144.89 L169.47 145.41 L171.46 149.57 L172.12 149.57 L172.79 145.51 L173.45 145.93 L174.11 146.86 L176.10 140.83 L176.77 146.14 L177.43 153.10 L178.76 152.38 L180.75 151.75 L181.41 151.86 L182.07 154.77 L182.74 153.62 L183.40 152.79 L185.39 149.15 L186.06 146.66 L186.72 146.97 L187.38 145.72 L188.05 142.81 L190.04 139.38 L190.70 138.65 L191.36 136.57 L192.03 133.86 L192.69 131.47 L194.68 129.29 L195.35 129.81 L196.01 134.18 L196.67 130.12 L197.34 130.02 L199.33 132.72 L199.99 135.74 L200.65 142.18 L201.32 140.83 L201.98 142.60 L203.97 140.94 L204.64 142.81 L205.30 145.62 L205.96 145.10 L206.63 144.68 L208.62 149.46 L209.28 152.38 L209.94 157.37 L210.61 155.08 L211.27 164.54 L213.26 167.56 L213.93 170.78 L214.59 169.95 L215.25 170.16 L215.92 166.73 L218.57 161.53 L219.23 164.02 L219.90 164.44 L220.56 159.66 L222.55 159.76 L223.21 154.87 L223.88 156.12 L224.54 156.12 L225.21 157.58 L227.20 155.70 L227.86 155.81 L228.52 154.87 L229.19 159.76 L229.85 159.24 L231.84 165.79 L232.50 169.12 L233.17 169.54 L233.83 169.54 L234.50 165.58 L236.49 164.86 L237.15 166.83 L237.81 167.56 L238.48 162.57 L239.14 157.89 L241.13 154.77 L241.79 149.15 L242.46 147.07 L243.12 139.79 L243.79 138.13 L246.44 134.49 L247.10 137.71 L247.77 135.74 L248.43 134.38 L250.42 129.91 L251.08 131.68 L251.75 130.85 L252.41 128.77 L253.07 126.27 L255.07 124.09 L255.73 123.46 L256.39 123.26 L257.06 120.34 L257.72 121.80 L259.71 124.61 L260.37 129.60 L261.04 121.38 L261.70 127.94 L262.36 122.22 L265.02 118.58 L265.68 115.56 L266.35 111.40 L267.01 106.10 L269.00 111.09 L269.66 115.98 L270.33 114.52 L270.99 118.16 L271.65 115.56 L273.64 113.69 L274.31 107.97 L274.97 111.09 L276.30 112.54 L278.29 106.82 L278.95 107.24 L279.62 106.82 L280.28 110.36 L280.94 99.02 L282.93 101.52 L283.60 97.36 L284.26 100.90 L284.93 95.38 L285.59 89.04 L287.58 90.08 L288.24 81.55 L288.91 79.16 L289.57 75.94 L290.23 77.18 L292.22 73.44 L292.89 74.17 L294.21 71.98 L294.88 68.97 L296.87 75.10 L297.53 72.40 L298.86 70.11 L299.52 66.68 L301.51 76.66 L302.18 78.54 L302.84 75.00 L303.50 73.02 L304.17 68.55 L306.16 71.26 L306.82 75.62 L307.49 78.64 L308.15 74.79 L308.81 70.32 L311.47 79.89 L312.13 76.46 L312.79 76.66 L313.46 79.58 L315.45 73.65 L316.11 73.23 L316.78 69.07 L317.44 71.26 L318.10 66.26 L320.09 51.50 L320.76 80.93 L321.42 84.88 L322.08 81.34 L322.75 81.66 L324.74 81.03 L325.40 81.97 L326.07 84.05 L326.73 90.08 L327.39 96.32 L330.05 94.34 L330.71 89.56 L331.37 93.72 L332.04 93.62 L334.03 90.70 L334.69 82.80 L335.36 78.02 L336.02 70.42 L336.68 68.97 L338.67 72.50 L339.34 60.44 L340.00 75.00 L340.66 84.67 L341.33 73.96 L343.32 69.18 L343.98 65.95 L344.64 72.71 L345.31 72.61 L345.97 74.79 L347.96 83.01 L348.63 81.55 L349.29 79.89 L349.95 80.10 L350.62 76.98 L352.61 83.63 L353.27 82.07 L353.93 87.58 L354.60 81.14 L355.26 84.67 L357.25 74.58 L357.92 81.14 L358.58 81.76 L359.24 107.55 L359.91 93.82 L361.90 90.70 L362.56 93.30 L363.22 94.55 L363.89 112.96 L364.55 124.92 L366.54 125.23 L367.21 119.82 L367.87 126.27 L368.53 128.98 L369.20 130.02 L371.19 132.93 L371.85 135.01 L372.51 125.02 L373.18 125.54 L373.84 128.77 L375.83 128.87 L376.50 129.29 L377.16 134.07 L377.82 129.91 L378.49 135.84 L380.48 133.76 L381.14 137.50 L381.80 137.61 L382.47 122.94 L383.13 121.80 L385.12 113.69 L385.79 118.37 L386.45 117.85 L387.11 115.14 L387.78 114.94 L389.77 119.82 L390.43 120.14 L391.09 132.51 L391.76 128.98 L392.42 139.48 L395.07 137.30 L395.74 132.82 L396.40 133.86 L397.07 140.31 L399.06 145.30 L399.72 142.91 L400.38 148.53 L401.05 148.63 L401.71 146.66 L403.70 147.80 L404.36 146.97 L405.03 149.15 L405.69 154.04 L406.36 158.20 L408.35 160.18 L409.01 156.95 L409.67 146.97 L411.00 141.14 L412.99 137.61 L413.65 144.06 L414.32 140.00 L414.98 152.58 L415.64 148.74 L417.64 153.52 L418.30 149.46 L418.96 153.52 L419.63 159.86 L422.28 151.02 L422.94 148.22 L423.61 145.82 L424.27 147.07 L424.93 147.49 L426.93 145.82 L427.59 143.85 L428.25 144.58 L428.92 140.10 L429.58 144.06 L431.57 146.34 L432.23 154.04 L432.90 154.66 L433.56 151.13 L434.22 143.74 L436.21 143.33 L436.88 137.19 L437.54 133.34 L438.21 130.12 L438.87 137.09 L440.86 137.40 L441.52 136.98 L442.19 141.14 L442.85 140.10 L443.51 139.79 L445.50 136.57 L446.17 138.75 L446.83 138.54 L447.50 134.18 L448.16 133.97 L450.15 133.24 L450.81 128.66 L451.48 127.10 L452.14 124.40 L452.80 130.12 L454.79 131.78 L455.46 132.41 L456.12 132.20 L456.79 140.00 L457.45 142.50 L460.10 136.46 L460.77 136.15 L461.43 131.89 L462.09 132.41 L464.08 132.72 L464.75 131.26 L465.41 130.33 L466.07 131.68 L466.74 128.77 L468.73 135.11 L469.39 140.52 L470.06 138.86 L470.72 135.22 L471.38 137.71 L473.37 133.34 L474.04 131.26 L474.70 125.02 L475.36 122.01 L476.03 119.62 L478.02 123.98 L478.68 121.59 L479.35 118.89 L480.01 116.70 L480.67 119.62 L482.66 119.72 L483.33 119.30 L483.99 118.89 L484.65 113.06 L485.32 114.31 L487.97 109.74 L488.64 110.57 L489.30 109.32 L489.96 109.22 L491.95 110.98 L492.62 112.96 L493.28 116.29 L493.94 114.94 L494.61 112.65 L496.60 114.52 L497.26 120.55 L497.93 125.13 L498.59 115.87 L499.25 112.96 L501.24 108.90 L501.91 105.58 L502.57 102.77 L503.23 100.79 L503.90 106.20 L505.89 110.98 L507.21 114.00 L507.88 112.96 L508.54 111.61 L510.53 111.09 L511.20 114.42 L511.86 108.90 L512.52 104.43 L513.19 104.22 L515.18 102.56 L515.84 102.04 L516.50 108.70 L517.83 116.70 L519.82 115.87 L520.49 115.25 L521.15 119.20 L521.81 120.34 L522.48 128.77 L524.47 130.02 L525.13 131.47 L525.79 131.26 L526.46 138.02 L527.12 136.57 L529.11 138.44 L529.78 140.10 L530.44 135.74 L531.10 138.75 L531.77 136.88 L533.76 140.62 L534.42 143.85 L535.08 148.22 L536.41 149.15 L538.40 147.28 L539.07 147.49 L539.73 143.95 L541.06 141.25 L543.05 139.27 L543.71 135.94 L544.37 131.89 L545.04 128.14 L545.70 125.13 L547.69 126.90 L548.36 125.96 L549.02 127.42 L549.68 124.82 L550.35 122.32 L553.00 132.62 L553.66 133.45 L554.33 134.90 L554.99 142.50 L556.98 146.03 L557.64 155.81 L558.31 158.20 L558.97 164.13 L559.64 160.07 L561.63 147.59 L562.29 151.02 L562.95 148.63 L563.62 148.32 L564.28 151.02 L566.27 158.72 L566.93 162.57 L567.60 158.82 L568.26 153.21 L568.93 153.73 L571.58 150.19 L572.24 147.80 L572.91 145.10 L573.57 146.45 L575.56 146.76 L576.22 144.99 L576.89 146.76 L577.55 146.97 L578.21 152.27 L580.21 144.68 L580.87 149.15 L581.53 149.26 L582.20 145.93 L582.86 155.70 L584.85 158.41 L585.51 159.55 L586.18 155.29 L586.84 153.73 L587.50 141.46 L589.50 146.97 L590.16 144.58 L590.82 145.51 L591.49 143.02 L592.15 141.98 L594.14 143.33 L594.80 138.54 L595.47 134.90 L596.13 129.70 L596.79 126.48 L598.79 122.22 L599.45 118.89 L600.11 127.00 L600.78 122.63 L601.44 120.03 L603.43 123.05 L604.09 123.88 L604.76 129.50 L605.42 134.07 L606.08 131.89 L608.07 133.66 L608.74 139.27 L609.40 141.04 L610.07 144.58 L610.73 148.63 L612.72 150.50 L613.38 151.23 L614.05 149.46 L614.71 147.07 L615.37 147.80 L617.36 153.94 L618.03 148.22 L618.69 148.22 L619.36 154.46 L620.02 158.20" stroke="#000000" stroke-width="1.5" fill="none" vector-effect="non-scaling-stroke"/><path d="M56.00 227.31 L56.66 227.31 L57.33 224.41 L57.99 224.41 L59.98 223.44 L60.64 225.38 L61.31 223.44 L61.97 217.62 L62.64 225.37 L65.29 221.50 L65.95 220.53 L66.62 219.56 L67.28 220.53 L69.27 220.53 L69.93 215.69 L70.60 222.47 L71.26 217.63 L71.93 218.59 L73.92 217.63 L74.58 222.47 L75.24 217.62 L75.91 217.63 L76.57 220.53 L78.56 221.50 L79.22 222.47 L79.89 219.56 L80.55 217.62 L81.21 218.59 L83.21 212.78 L83.87 219.56 L84.53 221.50 L85.20 222.47 L85.86 225.37 L88.51 233.12 L89.18 236.03 L89.84 237.00 L90.50 239.91 L92.50 238.94 L93.16 237.00 L93.82 235.06 L94.49 236.03 L95.15 234.09 L97.14 237.97 L97.80 239.91 L98.47 237.97 L99.13 232.16 L99.79 235.06 L101.79 235.06 L102.45 237.00 L103.11 237.00 L103.78 236.03 L104.44 237.00 L106.43 234.09 L107.09 239.91 L107.76 237.00 L108.42 237.00 L109.08 238.94 L111.07 231.19 L111.74 230.22 L112.40 231.19 L113.07 232.16 L115.72 235.06 L116.38 236.03 L117.05 236.03 L117.71 236.03 L118.37 241.84 L120.36 244.75 L121.03 243.78 L121.69 251.53 L122.36 258.31 L123.02 260.25 L125.01 259.28 L125.67 265.09 L126.34 263.16 L127.00 263.16 L127.66 262.19 L129.65 261.22 L130.32 249.59 L130.98 251.53 L131.64 251.53 L132.31 252.50 L134.30 256.38 L134.96 259.28 L135.63 255.41 L136.29 252.50 L136.95 254.44 L138.94 256.38 L139.61 256.38 L140.27 254.44 L140.93 249.59 L141.60 247.66 L143.59 245.72 L144.25 243.78 L144.92 244.75 L145.58 248.63 L146.24 249.59 L148.90 255.41 L149.56 256.38 L150.22 259.28 L150.89 258.31 L153.54 255.41 L154.21 254.44 L154.87 255.41 L155.53 261.22 L157.52 260.25 L158.19 261.22 L158.85 268.00 L159.51 268.00 L160.18 276.72 L162.17 276.72 L162.83 272.84 L163.50 272.84 L164.16 270.91 L164.82 272.84 L166.81 276.72 L167.48 275.75 L168.80 269.94 L169.47 268.97 L171.46 268.97 L172.12 257.34 L172.79 256.38 L173.45 257.34 L174.11 261.22 L176.77 258.31 L177.43 257.34 L178.76 255.41 L180.75 258.31 L181.41 258.31 L182.07 259.28 L182.74 254.44 L183.40 252.50 L185.39 253.47 L186.06 255.41 L186.72 252.50 L187.38 265.09 L188.05 266.06 L190.04 265.09 L190.70 259.28 L191.36 263.16 L192.03 267.03 L192.69 265.09 L194.68 268.00 L195.35 273.81 L196.01 271.88 L196.67 268.97 L197.34 259.28 L199.99 261.22 L200.65 258.31 L201.32 258.31 L201.98 261.22 L203.97 260.25 L204.64 258.31 L205.30 260.25 L205.96 266.06 L206.63 264.13 L208.62 262.19 L209.28 261.22 L209.94 256.38 L210.61 258.31 L211.27 256.38 L213.26 255.41 L213.93 248.63 L214.59 245.72 L215.25 245.72 L215.92 247.66 L218.57 252.50 L219.23 250.56 L219.90 251.53 L220.56 250.56 L222.55 255.41 L223.21 250.56 L223.88 249.59 L224.54 253.47 L225.21 252.50 L227.20 257.34 L227.86 256.38 L228.52 257.34 L229.19 258.31 L229.85 252.50 L231.84 255.41 L232.50 248.63 L233.17 247.66 L233.83 252.50 L234.50 253.47 L237.15 257.34 L237.81 254.44 L238.48 254.44 L239.14 260.25 L241.13 260.25 L241.79 260.25 L242.46 263.16 L243.12 268.00 L243.79 276.72 L246.44 282.53 L247.10 284.47 L247.77 283.50 L248.43 286.41 L250.42 287.38 L251.08 289.31 L251.75 290.28 L252.41 288.34 L253.07 290.28 L255.07 291.25 L255.73 291.25 L256.39 294.16 L257.06 297.06 L257.72 299.97 L259.71 296.09 L260.37 293.19 L261.04 299.00 L261.70 301.91 L262.36 305.78 L265.02 304.81 L265.68 298.03 L266.35 303.84 L267.01 303.84 L269.00 300.94 L269.66 294.16 L270.33 292.22 L270.99 283.50 L271.65 288.34 L273.64 283.50 L274.31 286.41 L274.97 287.38 L276.30 299.00 L278.29 300.94 L278.95 298.03 L279.62 299.97 L280.28 299.97 L280.94 308.69 L282.93 309.66 L283.60 313.53 L284.26 308.69 L284.93 307.72 L285.59 311.59 L287.58 311.59 L288.24 312.56 L288.91 317.41 L289.57 311.59 L290.23 312.56 L292.22 314.50 L292.89 313.53 L294.88 318.37 L296.87 315.47 L297.53 319.34 L298.86 319.34 L299.52 322.25 L301.51 324.19 L302.18 323.22 L302.84 321.28 L303.50 320.31 L304.17 320.31 L306.16 313.53 L306.82 309.66 L307.49 311.59 L308.15 315.47 L308.81 321.28 L311.47 324.19 L312.13 320.31 L312.79 321.28 L313.46 323.22 L315.45 318.38 L316.11 323.22 L316.78 329.03 L317.44 331.94 L318.10 342.59 L320.09 356.16 L320.76 346.47 L321.42 344.53 L322.08 348.41 L322.75 346.47 L324.74 348.41 L325.40 345.50 L326.07 345.50 L326.73 344.53 L327.39 340.66 L330.05 335.81 L330.71 334.84 L331.37 332.91 L332.04 332.91 L334.03 330.97 L334.69 330.00 L335.36 327.09 L336.02 330.97 L336.68 329.03 L338.67 336.78 L339.34 336.78 L340.00 331.94 L340.66 320.31 L341.33 327.09 L343.32 323.22 L343.98 328.06 L344.64 330.00 L345.31 325.16 L345.97 331.94 L347.96 337.75 L348.63 336.78 L349.29 334.84 L349.95 329.03 L350.62 330.00 L352.61 336.78 L353.27 327.09 L353.93 324.19 L354.60 329.03 L355.26 327.09 L357.25 330.00 L357.92 330.97 L358.58 333.88 L359.24 318.38 L359.91 318.38 L361.90 314.50 L362.56 313.53 L363.22 316.44 L363.89 309.66 L364.55 315.47 L366.54 313.53 L367.21 318.38 L367.87 312.56 L368.53 316.44 L371.19 307.72 L371.85 309.66 L372.51 306.75 L373.18 305.78 L373.84 302.88 L375.83 299.00 L376.50 299.00 L377.16 300.94 L377.82 307.72 L378.49 316.44 L380.48 315.47 L381.14 312.56 L381.80 314.50 L382.47 319.34 L383.13 323.22 L385.12 326.13 L385.79 330.00 L386.45 332.91 L387.11 330.00 L387.78 331.94 L390.43 321.28 L391.09 317.41 L391.76 317.41 L392.42 318.38 L395.07 315.47 L395.74 321.28 L396.40 319.34 L397.07 317.41 L399.06 323.22 L399.72 322.25 L400.38 315.47 L401.05 317.41 L401.71 322.25 L403.70 318.37 L404.36 319.34 L405.03 314.50 L405.69 309.66 L406.36 312.56 L408.35 312.56 L409.01 311.59 L409.67 313.53 L411.00 313.53 L412.99 310.63 L413.65 301.91 L414.32 297.06 L414.98 296.09 L415.64 300.94 L417.64 300.94 L418.96 299.97 L419.63 306.75 L422.28 308.69 L422.94 307.72 L423.61 307.72 L424.27 304.81 L424.93 303.84 L426.93 301.91 L427.59 299.97 L428.25 295.13 L428.92 298.03 L429.58 294.16 L431.57 294.16 L432.23 293.19 L432.90 294.16 L433.56 296.09 L434.22 298.03 L436.21 298.03 L436.88 297.06 L437.54 302.88 L438.21 305.78 L438.87 288.34 L441.52 291.25 L442.19 288.34 L442.85 291.25 L443.51 298.03 L445.50 296.09 L446.17 290.28 L446.83 287.38 L447.50 293.19 L448.16 291.25 L450.15 291.25 L450.81 293.19 L451.48 293.19 L452.14 294.16 L452.80 287.38 L454.79 289.31 L455.46 280.59 L456.12 278.66 L456.79 281.56 L457.45 283.50 L460.10 288.34 L460.77 287.38 L461.43 285.44 L462.09 285.44 L464.08 287.38 L464.75 290.28 L465.41 292.22 L466.07 290.28 L466.74 294.16 L468.73 293.19 L469.39 293.19 L470.06 291.25 L470.72 297.06 L471.38 299.00 L473.37 303.84 L474.04 296.09 L474.70 299.97 L475.36 302.88 L476.03 300.94 L478.02 303.84 L479.35 297.06 L480.01 298.03 L480.67 300.94 L482.66 300.94 L483.33 299.97 L483.99 299.97 L484.65 300.94 L485.32 293.19 L487.97 293.19 L488.64 296.09 L489.30 291.25 L489.96 297.06 L491.95 298.03 L492.62 294.16 L493.28 295.13 L493.94 297.06 L494.61 299.00 L496.60 299.97 L497.26 299.00 L497.93 303.84 L498.59 306.75 L499.25 307.72 L501.24 305.78 L501.91 302.88 L502.57 308.69 L503.23 305.78 L503.90 299.00 L505.89 300.94 L507.21 299.00 L507.88 299.00 L508.54 301.91 L510.53 299.00 L511.20 297.06 L511.86 297.06 L512.52 296.09 L513.19 295.13 L515.18 291.25 L515.84 291.25 L516.50 293.19 L517.83 294.16 L519.82 294.16 L520.49 293.19 L521.15 294.16 L521.81 294.16 L522.48 280.59 L524.47 281.56 L525.13 280.59 L525.79 279.63 L526.46 278.66 L527.12 278.66 L529.11 281.56 L529.78 278.66 L530.44 277.69 L531.10 275.75 L531.77 275.75 L533.76 272.84 L534.42 279.63 L535.08 278.66 L538.40 277.69 L539.07 275.75 L539.73 277.69 L541.06 274.78 L543.05 277.69 L543.71 276.72 L544.37 279.63 L545.04 280.59 L545.70 287.38 L547.69 286.41 L548.36 286.41 L549.02 286.41 L549.68 291.25 L550.35 293.19 L553.00 293.19 L553.66 292.22 L554.33 293.19 L554.99 288.34 L556.98 287.38 L557.64 283.50 L558.31 286.41 L558.97 284.47 L559.64 284.47 L561.63 288.34 L562.29 287.38 L562.95 287.38 L563.62 280.59 L564.28 283.50 L566.27 282.53 L566.93 280.59 L567.60 288.34 L568.26 286.41 L568.93 281.56 L571.58 286.41 L572.24 291.25 L572.91 291.25 L573.57 292.22 L575.56 288.34 L576.22 287.38 L576.89 287.38 L577.55 287.38 L578.21 287.38 L580.21 286.41 L580.87 288.34 L581.53 290.28 L582.20 287.38 L582.86 281.56 L584.85 281.56 L585.51 280.59 L586.18 280.59 L586.84 282.53 L587.50 282.53 L589.50 285.44 L590.16 289.31 L590.82 289.31 L591.49 283.50 L592.15 269.94 L594.14 276.72 L594.80 279.63 L595.47 283.50 L596.13 286.41 L596.79 281.56 L598.79 282.53 L599.45 285.44 L600.11 287.38 L600.78 285.44 L603.43 289.31 L604.09 283.50 L604.76 288.34 L605.42 287.38 L606.08 291.25 L608.07 287.38 L608.74 288.34 L609.40 285.44 L610.07 286.41 L610.73 282.53 L612.72 284.47 L613.38 282.53 L614.05 284.47 L614.71 286.41 L615.37 284.47 L617.36 283.50 L618.03 284.47 L618.69 277.69 L619.36 280.59 L620.02 282.53 L622.01 278.66 L622.67 280.59 L623.34 284.47 L624.00 286.41" stroke="#000000" stroke-width="1.5" fill="none" vector-effect="non-scaling-stroke"/><circle cx="620.02" cy="158.20" r="4" fill="#E63946"><title>USDCAD: 2026-05-01 1.3575</title></circle><circle cx="624.00" cy="286.41" r="4" fill="#E63946"><title>2y spread: 2026-05-07 -0.98 pp</title></circle><rect x="56" y="36" width="568" height="156" fill="none" stroke="#000000" stroke-width="1"/><rect x="56" y="206" width="568" height="155" fill="none" stroke="#000000" stroke-width="1"/><text x="48.00" y="170.00" text-anchor="end" fill="#000000" font-family="'IBM Plex Mono', Menlo, monospace" font-size="12" font-weight="400" font-variant-numeric="tabular-nums">1.35</text><text x="48.00" y="118.00" text-anchor="end" fill="#000000" font-family="'IBM Plex Mono', Menlo, monospace" font-size="12" font-weight="400" font-variant-numeric="tabular-nums">1.40</text><text x="48.00" y="66.00" text-anchor="end" fill="#000000" font-family="'IBM Plex Mono', Menlo, monospace" font-size="12" font-weight="400" font-variant-numeric="tabular-nums">1.45 CAD</text><text x="48.00" y="340.78" text-anchor="end" fill="#000000" font-family="'IBM Plex Mono', Menlo, monospace" font-size="12" font-weight="400" font-variant-numeric="tabular-nums">-1.5</text><text x="48.00" y="292.34" text-anchor="end" fill="#000000" font-family="'IBM Plex Mono', Menlo, monospace" font-size="12" font-weight="400" font-variant-numeric="tabular-nums">-1.0</text><text x="48.00" y="243.91" text-anchor="end" fill="#000000" font-family="'IBM Plex Mono', Menlo, monospace" font-size="12" font-weight="400" font-variant-numeric="tabular-nums">-0.5pp</text><text x="56.00" y="379.00" text-anchor="start" fill="#000000" font-family="Manrope, system-ui, sans-serif" font-size="12" font-weight="400">Jan 2024</text><text x="245.11" y="379.00" text-anchor="middle" fill="#000000" font-family="Manrope, system-ui, sans-serif" font-size="12" font-weight="400">Oct 2024</text><text x="434.22" y="379.00" text-anchor="middle" fill="#000000" font-family="Manrope, system-ui, sans-serif" font-size="12" font-weight="400">Jul 2025</text><text x="624.00" y="379.00" text-anchor="end" fill="#000000" font-family="Manrope, system-ui, sans-serif" font-size="12" font-weight="400">May 2026</text><text x="630.02" y="162.20" fill="#000000" font-family="Manrope, system-ui, sans-serif" font-size="13" font-weight="600">USDCAD</text><text x="634.00" y="290.41" fill="#000000" font-family="Manrope, system-ui, sans-serif" font-size="13" font-weight="600">2y spread</text></svg>